name X:\Health\ResearchProjects\ASalo\Sprinting 2016\NHaralabidis\Running_implicit_muscleDriven\Running_implicit_muscleDriven\Study2\ExperimentalData\IK_Splined\twoSteps_IK_BSplines_90_meshInts_study2_p02_s_01_lowIK_modROI.mot
datacolumns 38
datarows 6
range 0.54600000 0.55159558
endheader
                time	         pelvis_tilt	         pelvis_list	     pelvis_rotation	           pelvis_tx	           pelvis_ty	           pelvis_tz	       hip_flexion_r	     hip_adduction_r	      hip_rotation_r	        knee_angle_r	       ankle_angle_r	    subtalar_angle_r	         mtp_angle_r	       hip_flexion_l	     hip_adduction_l	      hip_rotation_l	        knee_angle_l	       ankle_angle_l	    subtalar_angle_l	         mtp_angle_l	    lumbar_extension	      lumbar_bending	     lumbar_rotation	          arm_flex_r	           arm_add_r	           arm_rot_r	        elbow_flex_r	           pro_sup_r	        wrist_flex_r	         wrist_dev_r	          arm_flex_l	           arm_add_l	           arm_rot_l	        elbow_flex_l	           pro_sup_l	        wrist_flex_l	         wrist_dev_l	
          0.54600000	        -23.02284842	         12.59195496	         -7.19476932	         -0.28945137	          0.87244027	          0.35079463	        -11.56188485	        -16.62473269	          0.61928045	        -25.42969082	        -42.82202223	        -15.75999612	         -5.87438006	         88.24132572	          0.78197351	        -11.19878593	        -86.13634457	          6.54753688	        -14.40793678	          7.20377084	        -14.99917017	        -23.77231938	         -7.00271268	         55.86619205	        -12.95667148	         24.67798116	        141.29889302	         60.41199281	        -18.61664563	         10.25145856	        -76.16042967	          4.60490690	        -44.92991638	         52.76899026	         63.40701560	          1.35695463	         25.46640457	
          0.54675114	        -23.00424273	         12.45729124	         -7.04225458	         -0.28526129	          0.87295314	          0.35088683	        -11.49603631	        -16.38578920	          0.42963011	        -25.90213991	        -42.78903847	        -15.88705405	         -5.97059799	         88.01626697	          0.81500316	        -11.13338562	        -85.80720443	          6.55400148	        -14.37901393	          7.19714413	        -15.11887330	        -23.70013128	         -7.10678759	         55.23246562	        -13.17346798	         24.60220460	        141.49984911	         60.35848953	        -18.65328960	         10.26531904	        -75.87671125	          4.58907313	        -44.95168871	         52.83472072	         63.39634904	          1.37032545	         25.45567965	
          0.54912442	        -22.92532635	         12.03067195	         -6.56274386	         -0.27201629	          0.87458736	          0.35118971	        -11.27012600	        -15.63186814	         -0.16161040	        -27.44894195	        -42.62582973	        -16.22732856	         -6.17085798	         87.26211513	          0.92318252	        -10.92771734	        -84.77956022	          6.56580014	        -14.27845877	          7.18428959	        -15.53400251	        -23.46891817	         -7.41077258	         53.16263237	        -13.85963486	         24.28314931	        142.09430295	         60.18984096	        -18.77373269	         10.31513212	        -74.95107128	          4.49023894	        -44.99108134	         53.07414967	         63.38821105	          1.41020641	         25.41881298	
          0.55084444	        -22.83465752	         11.71959121	         -6.21916806	         -0.26240697	          0.87579466	          0.35142849	        -11.07670588	        -15.08720182	         -0.57684362	        -28.65986933	        -42.40944343	        -16.37220872	         -6.14346834	         86.64394529	          1.00793593	        -10.78027333	        -84.05524144	          6.56000542	        -14.19033167	          7.18841496	        -15.89625399	        -23.29614569	         -7.58976177	         51.55025681	        -14.35889043	         23.91949340	        142.45780633	         60.06827886	        -18.86877757	         10.36124408	        -74.23165186	          4.33744894	        -44.97074260	         53.30046820	         63.42482399	          1.43517652	         25.38713808	
          0.55084444	        -22.83465752	         11.71959121	         -6.21916806	         -0.26240697	          0.87579466	          0.35142849	        -11.07670588	        -15.08720182	         -0.57684362	        -28.65986933	        -42.40944343	        -16.37220872	         -6.14346834	         86.64394529	          1.00793593	        -10.78027333	        -84.05524144	          6.56000542	        -14.19033167	          7.18841496	        -15.89625399	        -23.29614569	         -7.58976177	         51.55025681	        -14.35889043	         23.91949340	        142.45780633	         60.06827886	        -18.86877757	         10.36124408	        -74.23165186	          4.33744894	        -44.97074260	         53.30046820	         63.42482399	          1.43517652	         25.38713808	
          0.55159558	        -22.79506238	         11.58374204	         -6.06912828	         -0.25821057	          0.87632189	          0.35153276	        -10.99223918	        -14.84934567	         -0.75817625	        -29.18868215	        -42.31494739	        -16.43547799	         -6.13150727	         86.37399010	          1.04494780	        -10.71588443	        -83.73893093	          6.55747486	        -14.15184651	          7.19021651	        -16.05444946	        -23.22069583	         -7.66792648	         50.84613131	        -14.57691568	         23.76068461	        142.61654851	         60.01519261	        -18.91028373	         10.38138121	        -73.91748091	          4.27072544	        -44.96186066	         53.39930166	         63.44081288	          1.44608098	         25.37330562	
